# xmcd
#
# Track frame offsets: 
#        150
#        7982
#        19417
#        27931
#        38355
#        49402
#        61641
#        71914
#        82221
#        91874
#        100478
#        110078
#        120333
#        132546
#        143529
#        152630
#        162267
#        172440
#        185896
#        195999
#        205869
#        216090
#        227435
#        240527
#        250434
#        263531
#        274831
#        287136
#        296619
#        306728
#        316654
#        326494
#
# Disc length: 4498 seconds
#
# Revision: 0
# Processed by: cddbd v1.5.2PL0 Copyright (c) Steve Scherf et al.
# Submitted via: ExactAudioCopy v0.95b4
#
DISCID=d7119020
DTITLE=Various Artist - Country Goes Rock 'N' Roll Volume 2
DYEAR=2006
DGENRE=
TTITLE0=Frank "Andy" Starr - Rockin' and Reelin' Country Style
TTITLE1=Hayden Thompson - Act Like You Love Me
TTITLE2=Davis sisters - Fiddle Diddle Boogie
TTITLE3=Bobby Lord - No More, No More, No More
TTITLE4=Billy Strange - Let Me in There Baby
TTITLE5=Jimmy Collett - Four Alarm Boogie
TTITLE6=Jimmy Lee - Go Ahead and Go
TTITLE7=Johnny Horton - Tennessee Jive
TTITLE8=The Five Strings - I Like It
TTITLE9=Ray Campi - I Didn't Mean To Be Mean
TTITLE10=Eddie and Chuck - Boogie The Blues
TTITLE11=Rudy Gray - You'd Better Believe It
TTITLE12=Buck Griffin - It Don't Make No Never Mind
TTITLE13=Glenn Barber - Ice Water
TTITLE14=Gene Henslee - Rockin' Baby
TTITLE15=Lew Williams - I've Been Doin' Some Slippin' Too
TTITLE16=Gayle Griffith - Rockin' and A-Knockin'
TTITLE17=Goldie Hill - Say, Big Boy
TTITLE18=Wanda Jackson and Billy Gray - If You Don't, Somebody Else Will
TTITLE19=Ray Campi - Scrumptious Baby
TTITLE20=Frank "Andy" Starr - Dig Them Squeaky Shoes
TTITLE21=The Five Strings - Put Something in the Pot, Boy
TTITLE22=Red Smith - You Upset Me Baby
TTITLE23=Davis Sisters - Christmas Boogie
TTITLE24=Darrell Glenn - Don't Let Me Down
TTITLE25=Lucky Joe Almond - Gonna Roll and Rock
TTITLE26=Jimmy Myers - Drunk Man's Wiggle
TTITLE27=Jimmy Ballard - She's Got Something
TTITLE28=Ernie Chaffin - Get Me On Your Mind
TTITLE29=Elvis Presley - You're A Heartbreaker
TTITLE30=Carl Perkins - Honky Tonk Babe
TTITLE31=Johnny Burnette - You're Undecided
EXTD=
EXTT0=
EXTT1=
EXTT2=
EXTT3=
EXTT4=
EXTT5=
EXTT6=
EXTT7=
EXTT8=
EXTT9=
EXTT10=
EXTT11=
EXTT12=
EXTT13=
EXTT14=
EXTT15=
EXTT16=
EXTT17=
EXTT18=
EXTT19=
EXTT20=
EXTT21=
EXTT22=
EXTT23=
EXTT24=
EXTT25=
EXTT26=
EXTT27=
EXTT28=
EXTT29=
EXTT30=
EXTT31=
PLAYORDER=
